# xmcd
#
# Track frame offsets: 
#        150
#        24552
#        58732
#        91970
#        120392
#
# Disc length: 1981 seconds
#
# Revision: 1
# Processed by: cddbd v1.5.2PL0 Copyright (c) Steve Scherf et al.
# Submitted via: ExactAudioCopy v1.0b1
#
DISCID=3707bb05
DTITLE=椎名純平 - 無情
DYEAR=2001
DGENRE=JPop
TTITLE0=無情 [single edit]
TTITLE1=指 [live at quattro]
TTITLE2=無情 [original version]
TTITLE3=無情 [makoto's tokyo soul mix]
TTITLE4=無情 [dj.watarai feat.s-world remix]
EXTD=
EXTT0=
EXTT1=
EXTT2=
EXTT3=
EXTT4=
PLAYORDER=
